<?xml version="1.0" encoding="UTF-8" ?>
<!DOCTYPE svg PUBLIC "-//W3C//DTD SVG 1.1//EN" "http://www.w3.org/Graphics/SVG/1.1/DTD/svg11.dtd">
<svg width="600pt" height="958pt" viewBox="0 0 600 958" version="1.1" xmlns="http://www.w3.org/2000/svg">
<g id="#000000ff">
<path fill="#000000" opacity="1.00" d=" M 351.61 0.00 L 352.51 0.00 C 386.38 44.64 416.44 93.30 432.61 147.34 C 444.53 187.71 459.60 227.47 464.62 269.51 C 475.06 373.63 442.12 485.04 365.14 558.14 C 315.51 599.49 288.55 662.63 279.10 725.40 C 275.12 723.02 271.21 720.53 267.28 718.06 C 266.98 719.66 266.68 721.27 266.39 722.89 C 222.08 714.01 179.59 697.00 139.30 676.74 C 102.93 659.52 73.16 628.47 57.70 591.28 C 31.59 530.17 41.86 454.23 85.87 403.89 C 107.17 380.81 119.30 350.17 120.43 318.84 C 122.18 318.92 123.93 318.93 125.68 318.89 C 131.57 342.34 135.88 366.31 135.06 390.57 C 141.11 390.56 146.44 393.49 149.42 398.79 C 151.88 386.04 157.00 374.07 160.57 361.65 C 138.32 336.23 118.25 304.80 116.97 270.02 C 112.41 221.88 146.22 175.32 190.08 158.01 C 227.09 145.81 267.68 140.34 306.06 149.28 C 331.61 103.44 347.51 52.42 351.61 0.00 M 251.50 154.56 C 237.77 157.45 223.63 158.20 209.99 162.00 C 170.67 170.31 138.95 203.25 128.34 241.46 C 117.45 285.05 143.03 327.04 170.66 358.36 C 184.25 379.78 196.99 402.27 202.93 427.14 C 204.08 431.77 199.86 435.24 195.62 435.56 C 178.18 438.52 158.80 434.63 145.39 422.63 C 142.01 416.15 143.60 407.85 139.22 401.80 C 133.27 396.78 121.54 401.62 122.87 409.99 C 122.04 417.40 130.50 422.28 128.81 429.82 C 125.72 453.51 135.54 479.34 157.42 490.54 C 175.62 492.71 194.09 495.14 212.45 493.50 C 223.10 492.79 233.73 486.24 236.41 475.42 C 240.21 449.46 227.43 425.37 219.55 401.43 C 211.59 382.23 206.80 361.99 200.91 342.12 C 197.04 327.02 190.84 311.87 192.32 296.01 C 187.48 273.26 184.40 248.27 194.46 226.42 C 207.56 190.14 250.77 172.58 286.53 182.21 C 324.68 186.98 347.48 227.99 345.81 263.87 C 341.07 308.54 328.79 351.97 314.40 394.37 C 307.33 415.90 296.96 436.64 294.39 459.41 C 291.43 472.68 297.59 488.90 311.84 492.15 C 332.42 496.40 353.76 492.79 374.33 490.27 C 397.46 478.21 401.89 449.16 402.57 425.58 C 407.26 417.97 413.00 403.92 400.91 400.05 C 387.57 400.77 394.12 417.57 385.25 423.25 C 371.25 435.14 350.88 439.32 333.26 434.75 C 324.59 432.44 329.29 422.92 331.30 417.29 C 342.20 381.76 365.40 352.16 385.57 321.57 C 403.43 294.14 410.51 258.04 396.55 227.41 C 384.23 201.47 363.11 178.85 336.30 167.74 C 308.99 158.85 280.33 151.52 251.50 154.56 M 200.34 286.96 C 209.63 269.19 230.27 256.97 230.26 235.15 C 235.49 220.45 239.71 205.14 247.84 191.64 C 207.08 201.16 188.41 249.37 200.34 286.96 M 254.42 200.41 C 248.57 210.75 245.08 222.22 241.37 233.45 C 234.68 266.16 218.02 296.18 209.32 328.41 C 206.17 338.46 221.22 341.30 225.76 333.75 C 234.86 320.21 236.62 303.03 245.43 289.26 C 252.25 269.99 255.33 249.16 265.42 231.09 C 276.08 248.89 278.43 270.03 285.70 289.14 C 293.58 302.63 296.48 318.41 303.94 332.05 C 307.23 339.03 319.04 340.94 321.94 332.78 C 322.18 323.77 317.86 315.44 314.86 307.15 C 300.53 272.61 290.44 236.44 276.06 201.97 C 273.55 191.55 259.19 192.26 254.42 200.41 M 258.38 280.35 C 252.29 279.59 246.27 286.25 249.89 291.87 C 257.97 300.88 276.20 300.48 282.45 289.89 C 283.30 276.82 266.76 279.91 258.38 280.35 M 121.37 462.83 C 117.93 500.90 121.23 539.88 133.88 576.11 C 155.19 634.75 200.17 685.03 257.09 710.94 C 187.80 658.78 144.66 575.02 139.12 488.81 C 129.77 482.80 126.08 472.09 121.37 462.83 Z" />
<path fill="#000000" opacity="1.00" d=" M 517.14 214.04 C 519.78 215.21 522.77 216.02 524.78 218.22 C 571.86 299.36 595.35 392.84 599.40 486.22 C 599.36 493.74 599.31 501.27 599.47 508.78 C 597.98 552.19 581.65 595.12 552.41 627.44 C 518.81 663.79 470.59 687.12 420.97 689.09 C 390.73 692.20 363.50 708.20 341.13 728.06 C 344.69 704.32 350.28 680.76 359.30 658.47 C 376.39 614.20 397.12 570.01 430.58 535.60 C 453.16 515.22 476.23 494.47 492.10 468.17 C 519.12 419.12 523.01 361.81 522.73 306.97 C 524.33 276.03 523.64 244.43 517.14 214.04 Z" />
<path fill="#000000" opacity="1.00" d=" M 23.26 813.91 C 6.33 786.25 14.97 745.60 41.15 727.29 C 114.55 738.13 187.71 753.17 258.53 775.67 C 321.12 796.89 382.36 822.87 447.25 836.60 C 473.93 842.89 501.04 847.12 528.10 851.23 C 515.74 864.27 494.17 867.32 485.32 883.38 C 483.83 903.86 488.80 924.45 489.77 944.99 C 471.63 938.55 453.58 931.51 435.17 925.70 C 398.61 912.44 359.72 908.10 322.37 897.77 C 282.16 886.78 240.01 881.38 202.26 862.83 C 168.52 848.17 135.87 830.64 100.74 819.45 C 75.47 812.95 49.02 813.42 23.26 813.91 Z" />
<path fill="#000000" opacity="1.00" d=" M 564.32 731.67 C 590.10 740.44 601.43 778.29 582.95 798.91 C 555.49 806.63 527.75 814.19 500.03 820.80 C 444.82 807.77 389.35 793.18 336.90 771.46 C 412.66 757.98 488.51 744.83 564.32 731.67 Z" />
<path fill="#000000" opacity="1.00" d=" M 50.03 857.61 C 70.59 850.80 91.39 844.55 112.02 838.11 C 122.99 841.98 132.79 848.96 143.57 853.55 C 175.25 870.95 210.57 879.76 245.17 889.21 C 196.99 907.06 148.09 924.47 99.09 940.41 C 113.95 913.32 102.63 875.52 73.68 863.35 C 66.34 859.33 57.80 859.99 50.03 857.61 Z" />
<path fill="#000000" opacity="1.00" d=" M 571.39 861.46 C 574.49 860.97 577.72 861.97 580.30 863.71 C 604.60 889.27 590.26 936.74 558.10 948.23 C 549.16 949.16 538.90 954.10 531.36 946.63 C 522.71 936.83 524.09 922.49 520.21 910.62 C 516.18 899.53 521.60 886.14 532.56 881.53 C 545.66 875.17 557.74 866.49 571.39 861.46 Z" />
<path fill="#000000" opacity="1.00" d=" M 0.00 911.45 C 1.93 890.79 17.89 871.52 39.06 869.14 C 62.32 866.44 84.85 886.22 86.70 909.27 C 89.31 931.76 72.55 953.74 50.42 958.00 L 36.54 958.00 C 16.70 953.49 1.78 935.68 0.00 915.54 L 0.00 911.45 Z" />
</g>
<g id="#ffffffff">
<path fill="#ffffff" opacity="1.00" d=" M 251.50 154.56 C 280.33 151.52 308.99 158.85 336.30 167.74 C 363.11 178.85 384.23 201.47 396.55 227.41 C 410.51 258.04 403.43 294.14 385.57 321.57 C 365.40 352.16 342.20 381.76 331.30 417.29 C 329.29 422.92 324.59 432.44 333.26 434.75 C 350.88 439.32 371.25 435.14 385.25 423.25 C 394.12 417.57 387.57 400.77 400.91 400.05 C 413.00 403.92 407.26 417.97 402.57 425.58 C 401.89 449.16 397.46 478.21 374.33 490.27 C 353.76 492.79 332.42 496.40 311.84 492.15 C 297.59 488.90 291.43 472.68 294.39 459.41 C 296.96 436.64 307.33 415.90 314.40 394.37 C 328.79 351.97 341.07 308.54 345.81 263.87 C 347.48 227.99 324.68 186.98 286.53 182.21 C 250.77 172.58 207.56 190.14 194.46 226.42 C 184.40 248.27 187.48 273.26 192.32 296.01 C 190.84 311.87 197.04 327.02 200.91 342.12 C 206.80 361.99 211.59 382.23 219.55 401.43 C 227.43 425.37 240.21 449.46 236.41 475.42 C 233.73 486.24 223.10 492.79 212.45 493.50 C 194.09 495.14 175.62 492.71 157.42 490.54 C 135.54 479.34 125.72 453.51 128.81 429.82 C 130.50 422.28 122.04 417.40 122.87 409.99 C 121.54 401.62 133.27 396.78 139.22 401.80 C 143.60 407.85 142.01 416.15 145.39 422.63 C 158.80 434.63 178.18 438.52 195.62 435.56 C 199.86 435.24 204.08 431.77 202.93 427.14 C 196.99 402.27 184.25 379.78 170.66 358.36 C 143.03 327.04 117.45 285.05 128.34 241.46 C 138.95 203.25 170.67 170.31 209.99 162.00 C 223.63 158.20 237.77 157.45 251.50 154.56 Z" />
<path fill="#ffffff" opacity="1.00" d=" M 254.42 200.41 C 259.19 192.26 273.55 191.55 276.06 201.97 C 290.44 236.44 300.53 272.61 314.86 307.15 C 317.86 315.44 322.18 323.77 321.94 332.78 C 319.04 340.94 307.23 339.03 303.94 332.05 C 296.48 318.41 293.58 302.63 285.70 289.14 C 278.43 270.03 276.08 248.89 265.42 231.09 C 255.33 249.16 252.25 269.99 245.43 289.26 C 236.62 303.03 234.86 320.21 225.76 333.75 C 221.22 341.30 206.17 338.46 209.32 328.41 C 218.02 296.18 234.68 266.16 241.37 233.45 C 245.08 222.22 248.57 210.75 254.42 200.41 Z" />
<path fill="#ffffff" opacity="1.00" d=" M 258.38 280.35 C 266.76 279.91 283.30 276.82 282.45 289.89 C 276.20 300.48 257.97 300.88 249.89 291.87 C 246.27 286.25 252.29 279.59 258.38 280.35 Z" />
<path fill="#ffffff" opacity="1.00" d=" M 599.40 486.22 L 600.00 485.16 L 600.00 509.86 L 599.47 508.78 C 599.31 501.27 599.36 493.74 599.40 486.22 Z" />
</g>
</svg>
